<svg id="Layer_1" data-name="Layer 1" xmlns="http://www.w3.org/2000/svg" viewBox="0 0 100 100"><defs><style>.cls-1{fill:#3981c9;}</style></defs><path class="cls-1" d="M55.92,8.4A45.82,45.82,0,0,0,62.8.46,45.56,45.56,0,0,0,69.32,8.7c5.26,5.23,9,11.76,7.3,19-.78-4-3.64-7.41-7.14-10.1A34.52,34.52,0,0,1,63.82,12a35.3,35.3,0,0,1-4.38,6.6c-5.51,6.47-8.16,15,2.14,23,.8.62,1.62,1.21,2.42,1.72-2.93.07-7.55-2.68-9.17-4.31C42.63,26.73,47.57,16,55.92,8.4Z"/><path class="cls-1" d="M90.77,28.05a40,40,0,0,0,8.35,3.74,40,40,0,0,0-5.24,7.51c-3,5.7-7.54,10.45-14,10.85,3.17-1.66,5.27-4.89,6.63-8.49a30.35,30.35,0,0,1,3.19-6.11,30.48,30.48,0,0,1-6.6-2c-6.79-3-14.55-3-18.67,7.57-.32.83-.6,1.66-.83,2.45-.79-2.42.34-7,1.29-8.73C72.14,21.58,82.34,23,90.77,28.05Z"/><path class="cls-1" d="M84.52,62.77a37.51,37.51,0,0,0-.9,8.39,36.75,36.75,0,0,0-8.06-2.46c-5.86-1-11.3-3.64-13.49-9.16,2.36,2.3,5.79,3.22,9.33,3.39A27.67,27.67,0,0,1,77.66,64a28,28,0,0,1-.14-6.35c.67-6.79-1.47-13.61-11.94-14.2-.81,0-1.62-.06-2.38,0,1.9-1.38,6.2-1.69,8-1.35C84.9,44.62,86.55,54,84.52,62.77Z"/></svg>